<svg xmlns="http://www.w3.org/2000/svg" xmlns:xlink="http://www.w3.org/1999/xlink" width="500" zoomAndPan="magnify" viewBox="0 0 375 374.999991" height="500" preserveAspectRatio="xMidYMid meet" version="1.0"><defs><g/><clipPath id="2c032476e4"><path d="M 21.234375 69.71875 L 354.121094 69.71875 L 354.121094 328.851562 L 21.234375 328.851562 Z M 21.234375 69.71875 " clip-rule="nonzero"/></clipPath></defs><path fill="#1d213b" d="M 160.726562 31.816406 C 150.957031 31.816406 142.945312 39.832031 142.945312 49.597656 L 142.945312 62.933594 L 89.605469 62.933594 L 89.605469 56.265625 C 89.605469 52.609375 86.59375 49.597656 82.9375 49.597656 L 65.15625 49.597656 C 61.5 49.597656 58.488281 52.609375 58.488281 56.265625 L 58.488281 63.160156 C 33.613281 65.417969 14.039062 86.378906 14.039062 111.828125 L 14.039062 285.1875 C 14.039062 312.140625 35.980469 334.085938 62.933594 334.085938 L 311.859375 334.085938 C 338.8125 334.085938 360.753906 312.140625 360.753906 285.1875 L 360.753906 111.828125 C 360.753906 86.378906 341.179688 65.417969 316.304688 63.160156 L 316.304688 56.265625 C 316.304688 52.609375 313.292969 49.597656 309.636719 49.597656 L 291.855469 49.597656 C 288.199219 49.597656 285.1875 52.609375 285.1875 56.265625 L 285.1875 62.933594 L 231.847656 62.933594 L 231.847656 49.597656 C 231.847656 39.832031 223.835938 31.816406 214.066406 31.816406 Z M 160.726562 40.707031 L 214.066406 40.707031 C 219.03125 40.707031 222.957031 44.632812 222.957031 49.597656 L 222.957031 62.933594 L 151.835938 62.933594 L 151.835938 49.597656 C 151.835938 44.632812 155.761719 40.707031 160.726562 40.707031 Z M 65.15625 54.042969 L 82.9375 54.042969 C 84.1875 54.042969 85.160156 55.015625 85.160156 56.265625 L 85.160156 62.933594 L 62.933594 62.933594 L 62.933594 56.265625 C 62.933594 55.015625 63.90625 54.042969 65.15625 54.042969 Z M 291.855469 54.042969 L 309.636719 54.042969 C 310.886719 54.042969 311.859375 55.015625 311.859375 56.265625 L 311.859375 62.933594 L 289.632812 62.933594 L 289.632812 56.265625 C 289.632812 55.015625 290.605469 54.042969 291.855469 54.042969 Z M 62.933594 71.824219 L 98.496094 71.824219 L 98.496094 131.832031 C 98.492188 132.128906 98.542969 132.417969 98.65625 132.691406 C 98.765625 132.96875 98.925781 133.214844 99.132812 133.425781 C 99.34375 133.636719 99.585938 133.800781 99.859375 133.914062 C 100.132812 134.03125 100.417969 134.085938 100.71875 134.085938 C 101.015625 134.085938 101.300781 134.03125 101.574219 133.914062 C 101.847656 133.800781 102.089844 133.636719 102.300781 133.425781 C 102.507812 133.214844 102.667969 132.96875 102.78125 132.691406 C 102.890625 132.417969 102.945312 132.128906 102.941406 131.832031 L 102.941406 71.824219 L 116.273438 71.824219 L 116.273438 325.195312 L 102.941406 325.195312 L 102.941406 234.070312 C 102.945312 233.769531 102.890625 233.480469 102.777344 233.199219 C 102.664062 232.921875 102.5 232.675781 102.289062 232.464844 C 102.074219 232.25 101.832031 232.089844 101.550781 231.976562 C 101.273438 231.863281 100.984375 231.808594 100.683594 231.8125 C 100.386719 231.816406 100.105469 231.878906 99.835938 231.996094 C 99.5625 232.113281 99.324219 232.277344 99.121094 232.488281 C 98.914062 232.699219 98.757812 232.941406 98.648438 233.21875 C 98.542969 233.492188 98.488281 233.777344 98.496094 234.070312 L 98.496094 325.195312 L 62.933594 325.195312 C 40.785156 325.195312 22.925781 307.335938 22.925781 285.1875 L 22.925781 111.828125 C 22.925781 89.679688 40.785156 71.824219 62.933594 71.824219 Z M 120.71875 71.824219 L 254.074219 71.824219 L 254.074219 163.859375 L 197.484375 193.335938 C 197.21875 193.472656 196.992188 193.65625 196.800781 193.882812 C 196.613281 194.113281 196.472656 194.371094 196.386719 194.65625 C 196.296875 194.941406 196.269531 195.230469 196.300781 195.527344 C 196.328125 195.824219 196.414062 196.101562 196.554688 196.363281 L 216.421875 232.90625 C 216.558594 233.164062 216.742188 233.382812 216.964844 233.566406 C 217.191406 233.75 217.445312 233.886719 217.722656 233.972656 C 218 234.054688 218.285156 234.085938 218.574219 234.058594 C 218.867188 234.03125 219.140625 233.953125 219.398438 233.820312 L 328.441406 177.03125 C 328.707031 176.894531 328.933594 176.710938 329.125 176.480469 C 329.316406 176.25 329.453125 175.996094 329.542969 175.710938 C 329.628906 175.425781 329.65625 175.132812 329.628906 174.839844 C 329.597656 174.542969 329.511719 174.261719 329.371094 174 L 309.507812 137.441406 C 309.308594 137.074219 309.027344 136.785156 308.664062 136.574219 C 308.300781 136.367188 307.910156 136.265625 307.492188 136.277344 C 307.152344 136.289062 306.832031 136.371094 306.527344 136.53125 L 276.296875 152.277344 L 276.296875 71.824219 L 311.859375 71.824219 C 334.007812 71.824219 351.867188 89.679688 351.867188 111.828125 L 351.867188 285.1875 C 351.867188 307.335938 334.007812 325.195312 311.859375 325.195312 L 276.296875 325.195312 L 276.296875 216.289062 C 276.304688 215.988281 276.25 215.699219 276.136719 215.421875 C 276.023438 215.140625 275.859375 214.894531 275.648438 214.683594 C 275.433594 214.46875 275.191406 214.308594 274.910156 214.195312 C 274.632812 214.082031 274.34375 214.027344 274.042969 214.03125 C 273.746094 214.035156 273.464844 214.097656 273.195312 214.214844 C 272.921875 214.332031 272.683594 214.496094 272.480469 214.707031 C 272.273438 214.917969 272.117188 215.164062 272.007812 215.4375 C 271.902344 215.710938 271.847656 215.996094 271.855469 216.289062 L 271.855469 325.195312 L 258.519531 325.195312 L 258.519531 225.542969 C 258.523438 225.246094 258.46875 224.960938 258.359375 224.683594 C 258.246094 224.410156 258.085938 224.164062 257.878906 223.953125 C 257.667969 223.742188 257.429688 223.578125 257.152344 223.460938 C 256.878906 223.347656 256.59375 223.289062 256.296875 223.289062 C 256 223.289062 255.710938 223.347656 255.4375 223.460938 C 255.164062 223.578125 254.921875 223.742188 254.714844 223.953125 C 254.503906 224.164062 254.34375 224.410156 254.234375 224.683594 C 254.121094 224.960938 254.070312 225.246094 254.074219 225.542969 L 254.074219 325.195312 L 120.71875 325.195312 Z M 258.519531 71.824219 L 271.855469 71.824219 L 271.855469 154.597656 L 258.519531 161.542969 Z M 167.394531 102.941406 C 159.429688 102.941406 153.179688 106.007812 149.066406 110.632812 C 144.953125 115.257812 142.945312 121.335938 142.945312 127.386719 C 142.945312 133.4375 144.953125 139.519531 149.066406 144.144531 C 153.179688 148.769531 159.429688 151.835938 167.394531 151.835938 C 180.871094 151.835938 191.839844 140.863281 191.839844 127.386719 C 191.839844 113.910156 180.871094 102.941406 167.394531 102.941406 Z M 167.394531 107.382812 C 178.46875 107.382812 187.398438 116.3125 187.398438 127.386719 C 187.398438 138.460938 178.46875 147.390625 167.394531 147.390625 C 160.539062 147.390625 155.679688 144.902344 152.382812 141.191406 C 149.085938 137.484375 147.390625 132.449219 147.390625 127.386719 C 147.390625 122.324219 149.085938 117.292969 152.382812 113.582031 C 155.679688 109.875 160.539062 107.382812 167.394531 107.382812 Z M 306.640625 141.476562 L 324.386719 174.128906 L 219.285156 228.871094 L 201.539062 196.234375 Z M 100.683594 191.808594 C 100.386719 191.8125 100.105469 191.871094 99.835938 191.988281 C 99.5625 192.105469 99.324219 192.269531 99.121094 192.484375 C 98.914062 192.695312 98.757812 192.9375 98.648438 193.210938 C 98.542969 193.484375 98.488281 193.769531 98.496094 194.0625 L 98.496094 198.507812 C 98.492188 198.808594 98.542969 199.09375 98.65625 199.371094 C 98.765625 199.644531 98.925781 199.890625 99.132812 200.101562 C 99.34375 200.3125 99.585938 200.476562 99.859375 200.589844 C 100.132812 200.707031 100.417969 200.765625 100.71875 200.765625 C 101.015625 200.765625 101.300781 200.707031 101.574219 200.589844 C 101.847656 200.476562 102.089844 200.3125 102.300781 200.101562 C 102.507812 199.890625 102.667969 199.644531 102.78125 199.371094 C 102.890625 199.09375 102.945312 198.808594 102.941406 198.507812 L 102.941406 194.0625 C 102.945312 193.761719 102.890625 193.472656 102.777344 193.195312 C 102.664062 192.917969 102.5 192.671875 102.289062 192.457031 C 102.074219 192.246094 101.832031 192.082031 101.550781 191.96875 C 101.273438 191.855469 100.984375 191.800781 100.683594 191.808594 Z M 100.683594 209.585938 C 100.386719 209.59375 100.105469 209.652344 99.835938 209.769531 C 99.5625 209.886719 99.324219 210.050781 99.121094 210.261719 C 98.914062 210.472656 98.757812 210.71875 98.648438 210.992188 C 98.542969 211.265625 98.488281 211.550781 98.496094 211.84375 L 98.496094 220.734375 C 98.492188 221.03125 98.542969 221.320312 98.65625 221.59375 C 98.765625 221.871094 98.925781 222.113281 99.132812 222.328125 C 99.34375 222.539062 99.585938 222.703125 99.859375 222.816406 C 100.132812 222.933594 100.417969 222.988281 100.71875 222.988281 C 101.015625 222.988281 101.300781 222.933594 101.574219 222.816406 C 101.847656 222.703125 102.089844 222.539062 102.300781 222.328125 C 102.507812 222.113281 102.667969 221.871094 102.78125 221.59375 C 102.890625 221.320312 102.945312 221.03125 102.941406 220.734375 L 102.941406 211.84375 C 102.945312 211.542969 102.890625 211.253906 102.777344 210.976562 C 102.664062 210.695312 102.5 210.449219 102.289062 210.238281 C 102.074219 210.027344 101.832031 209.863281 101.550781 209.75 C 101.273438 209.636719 100.984375 209.582031 100.683594 209.585938 Z M 150.246094 249.628906 C 149.84375 249.65625 149.472656 249.78125 149.140625 250.011719 C 148.804688 250.238281 148.550781 250.539062 148.378906 250.90625 L 138.707031 271.515625 C 138.582031 271.78125 138.515625 272.0625 138.5 272.359375 C 138.488281 272.65625 138.53125 272.941406 138.632812 273.21875 C 138.734375 273.496094 138.882812 273.746094 139.082031 273.960938 C 139.285156 274.179688 139.515625 274.351562 139.785156 274.476562 L 210.125 307.207031 C 210.390625 307.332031 210.671875 307.398438 210.964844 307.414062 C 211.261719 307.425781 211.546875 307.382812 211.824219 307.28125 C 212.097656 307.183594 212.347656 307.03125 212.5625 306.835938 C 212.78125 306.636719 212.953125 306.40625 213.078125 306.136719 L 222.75 285.527344 C 222.875 285.261719 222.945312 284.980469 222.957031 284.683594 C 222.96875 284.386719 222.925781 284.101562 222.824219 283.824219 C 222.726562 283.546875 222.574219 283.296875 222.375 283.082031 C 222.175781 282.863281 221.941406 282.691406 221.671875 282.566406 L 151.332031 249.835938 C 151.058594 249.707031 150.773438 249.640625 150.472656 249.628906 C 150.398438 249.625 150.320312 249.625 150.246094 249.628906 Z M 151.460938 254.792969 L 217.773438 285.65625 L 209.996094 302.238281 L 143.683594 271.386719 Z M 151.460938 254.792969 " fill-opacity="1" fill-rule="nonzero"/><g clip-path="url(#2c032476e4)"><path fill="#1d213b" d="M 59.519531 69.71875 L 315.835938 69.71875 C 325.988281 69.71875 335.726562 73.746094 342.90625 80.914062 C 350.082031 88.082031 354.117188 97.804688 354.117188 107.941406 L 354.117188 290.625 C 354.117188 300.765625 350.082031 310.488281 342.90625 317.65625 C 335.726562 324.824219 325.988281 328.851562 315.835938 328.851562 L 59.519531 328.851562 C 49.367188 328.851562 39.628906 324.824219 32.453125 317.65625 C 25.273438 310.488281 21.238281 300.765625 21.238281 290.625 L 21.238281 107.941406 C 21.238281 97.804688 25.273438 88.082031 32.453125 80.914062 C 39.628906 73.746094 49.367188 69.71875 59.519531 69.71875 " fill-opacity="1" fill-rule="nonzero"/></g><g fill="#e9eaec" fill-opacity="1"><g transform="translate(45.75962, 219.680952)"><g><path d="M 32.148438 -37.886719 L 1.027344 -37.886719 L 1.027344 -28.902344 L 11.367188 -28.902344 L 11.367188 0 L 21.8125 0 L 21.8125 -28.902344 L 32.148438 -28.902344 Z M 32.148438 -37.886719 "/></g></g></g><g fill="#e9eaec" fill-opacity="1"><g transform="translate(78.933048, 219.680952)"><g><path d="M 35.289062 -6.332031 L 35.289062 -8.984375 C 35.289062 -12.449219 33.988281 -15.046875 29.984375 -17.425781 C 31.984375 -19.160156 34.691406 -21.269531 34.691406 -26.140625 C 34.691406 -32.472656 30.472656 -37.886719 19.863281 -37.886719 L 2.652344 -37.886719 L 2.652344 0 L 13.152344 0 L 13.152344 -12.71875 L 20.457031 -12.71875 C 23.488281 -12.71875 24.789062 -10.554688 24.789062 -8.605469 L 24.789062 -6.332031 C 24.789062 -3.410156 24.894531 -2.003906 25.871094 0 L 36.371094 0 C 35.394531 -2.003906 35.289062 -3.410156 35.289062 -6.332031 Z M 18.996094 -20.945312 L 13.152344 -20.945312 L 13.152344 -28.847656 L 19.644531 -28.847656 C 22.191406 -28.847656 23.867188 -27.710938 23.867188 -25.167969 C 23.867188 -22.246094 23.164062 -20.945312 18.996094 -20.945312 Z M 18.996094 -20.945312 "/></g></g></g><g fill="#e9eaec" fill-opacity="1"><g transform="translate(116.544028, 219.680952)"><g><path d="M 27.980469 0 L 39.292969 0 L 24.894531 -37.886719 L 15.425781 -37.886719 L 1.027344 0 L 12.339844 0 L 14.070312 -5.519531 L 26.25 -5.519531 Z M 16.398438 -13.152344 L 20.132812 -25.113281 L 23.867188 -13.152344 Z M 16.398438 -13.152344 "/></g></g></g><g fill="#e9eaec" fill-opacity="1"><g transform="translate(156.86084, 219.680952)"><g><path d="M 27.820312 -37.886719 L 19.863281 -12.773438 L 11.960938 -37.886719 L 0.757812 -37.886719 L 15.152344 0 L 24.625 0 L 39.023438 -37.886719 Z M 27.820312 -37.886719 "/></g></g></g><g fill="#e9eaec" fill-opacity="1"><g transform="translate(196.636479, 219.680952)"><g><path d="M 13.152344 -8.984375 L 13.152344 -14.882812 L 27.710938 -14.882812 L 27.710938 -23.21875 L 13.152344 -23.21875 L 13.152344 -28.902344 L 30.417969 -28.902344 L 30.417969 -37.886719 L 2.652344 -37.886719 L 2.652344 0 L 30.957031 0 L 30.957031 -8.984375 Z M 13.152344 -8.984375 "/></g></g></g><g fill="#e9eaec" fill-opacity="1"><g transform="translate(229.214625, 219.680952)"><g><path d="M 13.152344 -8.984375 L 13.152344 -37.886719 L 2.652344 -37.886719 L 2.652344 0 L 29.171875 0 L 29.171875 -8.984375 Z M 13.152344 -8.984375 "/></g></g></g><g fill="#e9eaec" fill-opacity="1"><g transform="translate(259.682223, 219.680952)"><g><path d="M 13.152344 -8.984375 L 13.152344 -14.882812 L 27.710938 -14.882812 L 27.710938 -23.21875 L 13.152344 -23.21875 L 13.152344 -28.902344 L 30.417969 -28.902344 L 30.417969 -37.886719 L 2.652344 -37.886719 L 2.652344 0 L 30.957031 0 L 30.957031 -8.984375 Z M 13.152344 -8.984375 "/></g></g></g><g fill="#e9eaec" fill-opacity="1"><g transform="translate(292.260369, 219.680952)"><g><path d="M 35.289062 -6.332031 L 35.289062 -8.984375 C 35.289062 -12.449219 33.988281 -15.046875 29.984375 -17.425781 C 31.984375 -19.160156 34.691406 -21.269531 34.691406 -26.140625 C 34.691406 -32.472656 30.472656 -37.886719 19.863281 -37.886719 L 2.652344 -37.886719 L 2.652344 0 L 13.152344 0 L 13.152344 -12.71875 L 20.457031 -12.71875 C 23.488281 -12.71875 24.789062 -10.554688 24.789062 -8.605469 L 24.789062 -6.332031 C 24.789062 -3.410156 24.894531 -2.003906 25.871094 0 L 36.371094 0 C 35.394531 -2.003906 35.289062 -3.410156 35.289062 -6.332031 Z M 18.996094 -20.945312 L 13.152344 -20.945312 L 13.152344 -28.847656 L 19.644531 -28.847656 C 22.191406 -28.847656 23.867188 -27.710938 23.867188 -25.167969 C 23.867188 -22.246094 23.164062 -20.945312 18.996094 -20.945312 Z M 18.996094 -20.945312 "/></g></g></g></svg>